<?xml version="1.0" encoding="utf-8"?>
<svg xmlns="http://www.w3.org/2000/svg" xmlns:xlink="http://www.w3.org/1999/xlink" style="margin: auto; background: none; display: block; shape-rendering: auto;" width="190px" height="190px" viewBox="0 0 100 100" preserveAspectRatio="xMidYMid">
<g transform="rotate(0 50 50)">
  <rect x="47" y="34" rx="3" ry="3" width="6" height="6" fill="#ccffcc">
    <animate attributeName="opacity" values="1;0" keyTimes="0;1" dur="1.0309278350515465s" begin="-1.0206185567010309s" repeatCount="indefinite"></animate>
  </rect>
</g><g transform="rotate(3.6 50 50)">
  <rect x="47" y="34" rx="3" ry="3" width="6" height="6" fill="#ccffcc">
    <animate attributeName="opacity" values="1;0" keyTimes="0;1" dur="1.0309278350515465s" begin="-1.0103092783505154s" repeatCount="indefinite"></animate>
  </rect>
</g><g transform="rotate(7.2 50 50)">
  <rect x="47" y="34" rx="3" ry="3" width="6" height="6" fill="#ccffcc">
    <animate attributeName="opacity" values="1;0" keyTimes="0;1" dur="1.0309278350515465s" begin="-1s" repeatCount="indefinite"></animate>
  </rect>
</g><g transform="rotate(10.8 50 50)">
  <rect x="47" y="34" rx="3" ry="3" width="6" height="6" fill="#ccffcc">
    <animate attributeName="opacity" values="1;0" keyTimes="0;1" dur="1.0309278350515465s" begin="-0.9896907216494846s" repeatCount="indefinite"></animate>
  </rect>
</g><g transform="rotate(14.4 50 50)">
  <rect x="47" y="34" rx="3" ry="3" width="6" height="6" fill="#ccffcc">
    <animate attributeName="opacity" values="1;0" keyTimes="0;1" dur="1.0309278350515465s" begin="-0.979381443298969s" repeatCount="indefinite"></animate>
  </rect>
</g><g transform="rotate(18 50 50)">
  <rect x="47" y="34" rx="3" ry="3" width="6" height="6" fill="#ccffcc">
    <animate attributeName="opacity" values="1;0" keyTimes="0;1" dur="1.0309278350515465s" begin="-0.9690721649484536s" repeatCount="indefinite"></animate>
  </rect>
</g><g transform="rotate(21.6 50 50)">
  <rect x="47" y="34" rx="3" ry="3" width="6" height="6" fill="#ccffcc">
    <animate attributeName="opacity" values="1;0" keyTimes="0;1" dur="1.0309278350515465s" begin="-0.9587628865979382s" repeatCount="indefinite"></animate>
  </rect>
</g><g transform="rotate(25.2 50 50)">
  <rect x="47" y="34" rx="3" ry="3" width="6" height="6" fill="#ccffcc">
    <animate attributeName="opacity" values="1;0" keyTimes="0;1" dur="1.0309278350515465s" begin="-0.9484536082474226s" repeatCount="indefinite"></animate>
  </rect>
</g><g transform="rotate(28.8 50 50)">
  <rect x="47" y="34" rx="3" ry="3" width="6" height="6" fill="#ccffcc">
    <animate attributeName="opacity" values="1;0" keyTimes="0;1" dur="1.0309278350515465s" begin="-0.9381443298969072s" repeatCount="indefinite"></animate>
  </rect>
</g><g transform="rotate(32.4 50 50)">
  <rect x="47" y="34" rx="3" ry="3" width="6" height="6" fill="#ccffcc">
    <animate attributeName="opacity" values="1;0" keyTimes="0;1" dur="1.0309278350515465s" begin="-0.9278350515463918s" repeatCount="indefinite"></animate>
  </rect>
</g><g transform="rotate(36 50 50)">
  <rect x="47" y="34" rx="3" ry="3" width="6" height="6" fill="#ccffcc">
    <animate attributeName="opacity" values="1;0" keyTimes="0;1" dur="1.0309278350515465s" begin="-0.9175257731958762s" repeatCount="indefinite"></animate>
  </rect>
</g><g transform="rotate(39.6 50 50)">
  <rect x="47" y="34" rx="3" ry="3" width="6" height="6" fill="#ccffcc">
    <animate attributeName="opacity" values="1;0" keyTimes="0;1" dur="1.0309278350515465s" begin="-0.9072164948453608s" repeatCount="indefinite"></animate>
  </rect>
</g><g transform="rotate(43.2 50 50)">
  <rect x="47" y="34" rx="3" ry="3" width="6" height="6" fill="#ccffcc">
    <animate attributeName="opacity" values="1;0" keyTimes="0;1" dur="1.0309278350515465s" begin="-0.8969072164948454s" repeatCount="indefinite"></animate>
  </rect>
</g><g transform="rotate(46.8 50 50)">
  <rect x="47" y="34" rx="3" ry="3" width="6" height="6" fill="#ccffcc">
    <animate attributeName="opacity" values="1;0" keyTimes="0;1" dur="1.0309278350515465s" begin="-0.8865979381443299s" repeatCount="indefinite"></animate>
  </rect>
</g><g transform="rotate(50.4 50 50)">
  <rect x="47" y="34" rx="3" ry="3" width="6" height="6" fill="#ccffcc">
    <animate attributeName="opacity" values="1;0" keyTimes="0;1" dur="1.0309278350515465s" begin="-0.8762886597938144s" repeatCount="indefinite"></animate>
  </rect>
</g><g transform="rotate(54 50 50)">
  <rect x="47" y="34" rx="3" ry="3" width="6" height="6" fill="#ccffcc">
    <animate attributeName="opacity" values="1;0" keyTimes="0;1" dur="1.0309278350515465s" begin="-0.865979381443299s" repeatCount="indefinite"></animate>
  </rect>
</g><g transform="rotate(57.6 50 50)">
  <rect x="47" y="34" rx="3" ry="3" width="6" height="6" fill="#ccffcc">
    <animate attributeName="opacity" values="1;0" keyTimes="0;1" dur="1.0309278350515465s" begin="-0.8556701030927835s" repeatCount="indefinite"></animate>
  </rect>
</g><g transform="rotate(61.2 50 50)">
  <rect x="47" y="34" rx="3" ry="3" width="6" height="6" fill="#ccffcc">
    <animate attributeName="opacity" values="1;0" keyTimes="0;1" dur="1.0309278350515465s" begin="-0.845360824742268s" repeatCount="indefinite"></animate>
  </rect>
</g><g transform="rotate(64.8 50 50)">
  <rect x="47" y="34" rx="3" ry="3" width="6" height="6" fill="#ccffcc">
    <animate attributeName="opacity" values="1;0" keyTimes="0;1" dur="1.0309278350515465s" begin="-0.8350515463917526s" repeatCount="indefinite"></animate>
  </rect>
</g><g transform="rotate(68.4 50 50)">
  <rect x="47" y="34" rx="3" ry="3" width="6" height="6" fill="#ccffcc">
    <animate attributeName="opacity" values="1;0" keyTimes="0;1" dur="1.0309278350515465s" begin="-0.8247422680412371s" repeatCount="indefinite"></animate>
  </rect>
</g><g transform="rotate(72 50 50)">
  <rect x="47" y="34" rx="3" ry="3" width="6" height="6" fill="#ccffcc">
    <animate attributeName="opacity" values="1;0" keyTimes="0;1" dur="1.0309278350515465s" begin="-0.8144329896907216s" repeatCount="indefinite"></animate>
  </rect>
</g><g transform="rotate(75.6 50 50)">
  <rect x="47" y="34" rx="3" ry="3" width="6" height="6" fill="#ccffcc">
    <animate attributeName="opacity" values="1;0" keyTimes="0;1" dur="1.0309278350515465s" begin="-0.8041237113402062s" repeatCount="indefinite"></animate>
  </rect>
</g><g transform="rotate(79.2 50 50)">
  <rect x="47" y="34" rx="3" ry="3" width="6" height="6" fill="#ccffcc">
    <animate attributeName="opacity" values="1;0" keyTimes="0;1" dur="1.0309278350515465s" begin="-0.7938144329896907s" repeatCount="indefinite"></animate>
  </rect>
</g><g transform="rotate(82.8 50 50)">
  <rect x="47" y="34" rx="3" ry="3" width="6" height="6" fill="#ccffcc">
    <animate attributeName="opacity" values="1;0" keyTimes="0;1" dur="1.0309278350515465s" begin="-0.7835051546391752s" repeatCount="indefinite"></animate>
  </rect>
</g><g transform="rotate(86.4 50 50)">
  <rect x="47" y="34" rx="3" ry="3" width="6" height="6" fill="#ccffcc">
    <animate attributeName="opacity" values="1;0" keyTimes="0;1" dur="1.0309278350515465s" begin="-0.7731958762886598s" repeatCount="indefinite"></animate>
  </rect>
</g><g transform="rotate(90 50 50)">
  <rect x="47" y="34" rx="3" ry="3" width="6" height="6" fill="#ccffcc">
    <animate attributeName="opacity" values="1;0" keyTimes="0;1" dur="1.0309278350515465s" begin="-0.7628865979381443s" repeatCount="indefinite"></animate>
  </rect>
</g><g transform="rotate(93.6 50 50)">
  <rect x="47" y="34" rx="3" ry="3" width="6" height="6" fill="#ccffcc">
    <animate attributeName="opacity" values="1;0" keyTimes="0;1" dur="1.0309278350515465s" begin="-0.7525773195876289s" repeatCount="indefinite"></animate>
  </rect>
</g><g transform="rotate(97.2 50 50)">
  <rect x="47" y="34" rx="3" ry="3" width="6" height="6" fill="#ccffcc">
    <animate attributeName="opacity" values="1;0" keyTimes="0;1" dur="1.0309278350515465s" begin="-0.7422680412371134s" repeatCount="indefinite"></animate>
  </rect>
</g><g transform="rotate(100.8 50 50)">
  <rect x="47" y="34" rx="3" ry="3" width="6" height="6" fill="#ccffcc">
    <animate attributeName="opacity" values="1;0" keyTimes="0;1" dur="1.0309278350515465s" begin="-0.7319587628865979s" repeatCount="indefinite"></animate>
  </rect>
</g><g transform="rotate(104.4 50 50)">
  <rect x="47" y="34" rx="3" ry="3" width="6" height="6" fill="#ccffcc">
    <animate attributeName="opacity" values="1;0" keyTimes="0;1" dur="1.0309278350515465s" begin="-0.7216494845360825s" repeatCount="indefinite"></animate>
  </rect>
</g><g transform="rotate(108 50 50)">
  <rect x="47" y="34" rx="3" ry="3" width="6" height="6" fill="#ccffcc">
    <animate attributeName="opacity" values="1;0" keyTimes="0;1" dur="1.0309278350515465s" begin="-0.711340206185567s" repeatCount="indefinite"></animate>
  </rect>
</g><g transform="rotate(111.6 50 50)">
  <rect x="47" y="34" rx="3" ry="3" width="6" height="6" fill="#ccffcc">
    <animate attributeName="opacity" values="1;0" keyTimes="0;1" dur="1.0309278350515465s" begin="-0.7010309278350515s" repeatCount="indefinite"></animate>
  </rect>
</g><g transform="rotate(115.2 50 50)">
  <rect x="47" y="34" rx="3" ry="3" width="6" height="6" fill="#ccffcc">
    <animate attributeName="opacity" values="1;0" keyTimes="0;1" dur="1.0309278350515465s" begin="-0.6907216494845361s" repeatCount="indefinite"></animate>
  </rect>
</g><g transform="rotate(118.8 50 50)">
  <rect x="47" y="34" rx="3" ry="3" width="6" height="6" fill="#ccffcc">
    <animate attributeName="opacity" values="1;0" keyTimes="0;1" dur="1.0309278350515465s" begin="-0.6804123711340206s" repeatCount="indefinite"></animate>
  </rect>
</g><g transform="rotate(122.4 50 50)">
  <rect x="47" y="34" rx="3" ry="3" width="6" height="6" fill="#ccffcc">
    <animate attributeName="opacity" values="1;0" keyTimes="0;1" dur="1.0309278350515465s" begin="-0.6701030927835051s" repeatCount="indefinite"></animate>
  </rect>
</g><g transform="rotate(126 50 50)">
  <rect x="47" y="34" rx="3" ry="3" width="6" height="6" fill="#ccffcc">
    <animate attributeName="opacity" values="1;0" keyTimes="0;1" dur="1.0309278350515465s" begin="-0.6597938144329897s" repeatCount="indefinite"></animate>
  </rect>
</g><g transform="rotate(129.6 50 50)">
  <rect x="47" y="34" rx="3" ry="3" width="6" height="6" fill="#ccffcc">
    <animate attributeName="opacity" values="1;0" keyTimes="0;1" dur="1.0309278350515465s" begin="-0.6494845360824743s" repeatCount="indefinite"></animate>
  </rect>
</g><g transform="rotate(133.2 50 50)">
  <rect x="47" y="34" rx="3" ry="3" width="6" height="6" fill="#ccffcc">
    <animate attributeName="opacity" values="1;0" keyTimes="0;1" dur="1.0309278350515465s" begin="-0.6391752577319587s" repeatCount="indefinite"></animate>
  </rect>
</g><g transform="rotate(136.8 50 50)">
  <rect x="47" y="34" rx="3" ry="3" width="6" height="6" fill="#ccffcc">
    <animate attributeName="opacity" values="1;0" keyTimes="0;1" dur="1.0309278350515465s" begin="-0.6288659793814433s" repeatCount="indefinite"></animate>
  </rect>
</g><g transform="rotate(140.4 50 50)">
  <rect x="47" y="34" rx="3" ry="3" width="6" height="6" fill="#ccffcc">
    <animate attributeName="opacity" values="1;0" keyTimes="0;1" dur="1.0309278350515465s" begin="-0.6185567010309279s" repeatCount="indefinite"></animate>
  </rect>
</g><g transform="rotate(144 50 50)">
  <rect x="47" y="34" rx="3" ry="3" width="6" height="6" fill="#ccffcc">
    <animate attributeName="opacity" values="1;0" keyTimes="0;1" dur="1.0309278350515465s" begin="-0.6082474226804123s" repeatCount="indefinite"></animate>
  </rect>
</g><g transform="rotate(147.6 50 50)">
  <rect x="47" y="34" rx="3" ry="3" width="6" height="6" fill="#ccffcc">
    <animate attributeName="opacity" values="1;0" keyTimes="0;1" dur="1.0309278350515465s" begin="-0.5979381443298969s" repeatCount="indefinite"></animate>
  </rect>
</g><g transform="rotate(151.2 50 50)">
  <rect x="47" y="34" rx="3" ry="3" width="6" height="6" fill="#ccffcc">
    <animate attributeName="opacity" values="1;0" keyTimes="0;1" dur="1.0309278350515465s" begin="-0.5876288659793815s" repeatCount="indefinite"></animate>
  </rect>
</g><g transform="rotate(154.8 50 50)">
  <rect x="47" y="34" rx="3" ry="3" width="6" height="6" fill="#ccffcc">
    <animate attributeName="opacity" values="1;0" keyTimes="0;1" dur="1.0309278350515465s" begin="-0.5773195876288659s" repeatCount="indefinite"></animate>
  </rect>
</g><g transform="rotate(158.4 50 50)">
  <rect x="47" y="34" rx="3" ry="3" width="6" height="6" fill="#ccffcc">
    <animate attributeName="opacity" values="1;0" keyTimes="0;1" dur="1.0309278350515465s" begin="-0.5670103092783505s" repeatCount="indefinite"></animate>
  </rect>
</g><g transform="rotate(162 50 50)">
  <rect x="47" y="34" rx="3" ry="3" width="6" height="6" fill="#ccffcc">
    <animate attributeName="opacity" values="1;0" keyTimes="0;1" dur="1.0309278350515465s" begin="-0.5567010309278351s" repeatCount="indefinite"></animate>
  </rect>
</g><g transform="rotate(165.6 50 50)">
  <rect x="47" y="34" rx="3" ry="3" width="6" height="6" fill="#ccffcc">
    <animate attributeName="opacity" values="1;0" keyTimes="0;1" dur="1.0309278350515465s" begin="-0.5463917525773195s" repeatCount="indefinite"></animate>
  </rect>
</g><g transform="rotate(169.2 50 50)">
  <rect x="47" y="34" rx="3" ry="3" width="6" height="6" fill="#ccffcc">
    <animate attributeName="opacity" values="1;0" keyTimes="0;1" dur="1.0309278350515465s" begin="-0.5360824742268041s" repeatCount="indefinite"></animate>
  </rect>
</g><g transform="rotate(172.8 50 50)">
  <rect x="47" y="34" rx="3" ry="3" width="6" height="6" fill="#ccffcc">
    <animate attributeName="opacity" values="1;0" keyTimes="0;1" dur="1.0309278350515465s" begin="-0.5257731958762887s" repeatCount="indefinite"></animate>
  </rect>
</g><g transform="rotate(176.4 50 50)">
  <rect x="47" y="34" rx="3" ry="3" width="6" height="6" fill="#ccffcc">
    <animate attributeName="opacity" values="1;0" keyTimes="0;1" dur="1.0309278350515465s" begin="-0.5154639175257731s" repeatCount="indefinite"></animate>
  </rect>
</g><g transform="rotate(180 50 50)">
  <rect x="47" y="34" rx="3" ry="3" width="6" height="6" fill="#ccffcc">
    <animate attributeName="opacity" values="1;0" keyTimes="0;1" dur="1.0309278350515465s" begin="-0.5051546391752577s" repeatCount="indefinite"></animate>
  </rect>
</g><g transform="rotate(183.6 50 50)">
  <rect x="47" y="34" rx="3" ry="3" width="6" height="6" fill="#ccffcc">
    <animate attributeName="opacity" values="1;0" keyTimes="0;1" dur="1.0309278350515465s" begin="-0.4948453608247423s" repeatCount="indefinite"></animate>
  </rect>
</g><g transform="rotate(187.2 50 50)">
  <rect x="47" y="34" rx="3" ry="3" width="6" height="6" fill="#ccffcc">
    <animate attributeName="opacity" values="1;0" keyTimes="0;1" dur="1.0309278350515465s" begin="-0.4845360824742268s" repeatCount="indefinite"></animate>
  </rect>
</g><g transform="rotate(190.8 50 50)">
  <rect x="47" y="34" rx="3" ry="3" width="6" height="6" fill="#ccffcc">
    <animate attributeName="opacity" values="1;0" keyTimes="0;1" dur="1.0309278350515465s" begin="-0.4742268041237113s" repeatCount="indefinite"></animate>
  </rect>
</g><g transform="rotate(194.4 50 50)">
  <rect x="47" y="34" rx="3" ry="3" width="6" height="6" fill="#ccffcc">
    <animate attributeName="opacity" values="1;0" keyTimes="0;1" dur="1.0309278350515465s" begin="-0.4639175257731959s" repeatCount="indefinite"></animate>
  </rect>
</g><g transform="rotate(198 50 50)">
  <rect x="47" y="34" rx="3" ry="3" width="6" height="6" fill="#ccffcc">
    <animate attributeName="opacity" values="1;0" keyTimes="0;1" dur="1.0309278350515465s" begin="-0.4536082474226804s" repeatCount="indefinite"></animate>
  </rect>
</g><g transform="rotate(201.6 50 50)">
  <rect x="47" y="34" rx="3" ry="3" width="6" height="6" fill="#ccffcc">
    <animate attributeName="opacity" values="1;0" keyTimes="0;1" dur="1.0309278350515465s" begin="-0.44329896907216493s" repeatCount="indefinite"></animate>
  </rect>
</g><g transform="rotate(205.2 50 50)">
  <rect x="47" y="34" rx="3" ry="3" width="6" height="6" fill="#ccffcc">
    <animate attributeName="opacity" values="1;0" keyTimes="0;1" dur="1.0309278350515465s" begin="-0.4329896907216495s" repeatCount="indefinite"></animate>
  </rect>
</g><g transform="rotate(208.8 50 50)">
  <rect x="47" y="34" rx="3" ry="3" width="6" height="6" fill="#ccffcc">
    <animate attributeName="opacity" values="1;0" keyTimes="0;1" dur="1.0309278350515465s" begin="-0.422680412371134s" repeatCount="indefinite"></animate>
  </rect>
</g><g transform="rotate(212.4 50 50)">
  <rect x="47" y="34" rx="3" ry="3" width="6" height="6" fill="#ccffcc">
    <animate attributeName="opacity" values="1;0" keyTimes="0;1" dur="1.0309278350515465s" begin="-0.41237113402061853s" repeatCount="indefinite"></animate>
  </rect>
</g><g transform="rotate(216 50 50)">
  <rect x="47" y="34" rx="3" ry="3" width="6" height="6" fill="#ccffcc">
    <animate attributeName="opacity" values="1;0" keyTimes="0;1" dur="1.0309278350515465s" begin="-0.4020618556701031s" repeatCount="indefinite"></animate>
  </rect>
</g><g transform="rotate(219.6 50 50)">
  <rect x="47" y="34" rx="3" ry="3" width="6" height="6" fill="#ccffcc">
    <animate attributeName="opacity" values="1;0" keyTimes="0;1" dur="1.0309278350515465s" begin="-0.3917525773195876s" repeatCount="indefinite"></animate>
  </rect>
</g><g transform="rotate(223.2 50 50)">
  <rect x="47" y="34" rx="3" ry="3" width="6" height="6" fill="#ccffcc">
    <animate attributeName="opacity" values="1;0" keyTimes="0;1" dur="1.0309278350515465s" begin="-0.38144329896907214s" repeatCount="indefinite"></animate>
  </rect>
</g><g transform="rotate(226.8 50 50)">
  <rect x="47" y="34" rx="3" ry="3" width="6" height="6" fill="#ccffcc">
    <animate attributeName="opacity" values="1;0" keyTimes="0;1" dur="1.0309278350515465s" begin="-0.3711340206185567s" repeatCount="indefinite"></animate>
  </rect>
</g><g transform="rotate(230.4 50 50)">
  <rect x="47" y="34" rx="3" ry="3" width="6" height="6" fill="#ccffcc">
    <animate attributeName="opacity" values="1;0" keyTimes="0;1" dur="1.0309278350515465s" begin="-0.36082474226804123s" repeatCount="indefinite"></animate>
  </rect>
</g><g transform="rotate(234 50 50)">
  <rect x="47" y="34" rx="3" ry="3" width="6" height="6" fill="#ccffcc">
    <animate attributeName="opacity" values="1;0" keyTimes="0;1" dur="1.0309278350515465s" begin="-0.35051546391752575s" repeatCount="indefinite"></animate>
  </rect>
</g><g transform="rotate(237.6 50 50)">
  <rect x="47" y="34" rx="3" ry="3" width="6" height="6" fill="#ccffcc">
    <animate attributeName="opacity" values="1;0" keyTimes="0;1" dur="1.0309278350515465s" begin="-0.3402061855670103s" repeatCount="indefinite"></animate>
  </rect>
</g><g transform="rotate(241.2 50 50)">
  <rect x="47" y="34" rx="3" ry="3" width="6" height="6" fill="#ccffcc">
    <animate attributeName="opacity" values="1;0" keyTimes="0;1" dur="1.0309278350515465s" begin="-0.32989690721649484s" repeatCount="indefinite"></animate>
  </rect>
</g><g transform="rotate(244.8 50 50)">
  <rect x="47" y="34" rx="3" ry="3" width="6" height="6" fill="#ccffcc">
    <animate attributeName="opacity" values="1;0" keyTimes="0;1" dur="1.0309278350515465s" begin="-0.31958762886597936s" repeatCount="indefinite"></animate>
  </rect>
</g><g transform="rotate(248.4 50 50)">
  <rect x="47" y="34" rx="3" ry="3" width="6" height="6" fill="#ccffcc">
    <animate attributeName="opacity" values="1;0" keyTimes="0;1" dur="1.0309278350515465s" begin="-0.30927835051546393s" repeatCount="indefinite"></animate>
  </rect>
</g><g transform="rotate(252 50 50)">
  <rect x="47" y="34" rx="3" ry="3" width="6" height="6" fill="#ccffcc">
    <animate attributeName="opacity" values="1;0" keyTimes="0;1" dur="1.0309278350515465s" begin="-0.29896907216494845s" repeatCount="indefinite"></animate>
  </rect>
</g><g transform="rotate(255.6 50 50)">
  <rect x="47" y="34" rx="3" ry="3" width="6" height="6" fill="#ccffcc">
    <animate attributeName="opacity" values="1;0" keyTimes="0;1" dur="1.0309278350515465s" begin="-0.28865979381443296s" repeatCount="indefinite"></animate>
  </rect>
</g><g transform="rotate(259.2 50 50)">
  <rect x="47" y="34" rx="3" ry="3" width="6" height="6" fill="#ccffcc">
    <animate attributeName="opacity" values="1;0" keyTimes="0;1" dur="1.0309278350515465s" begin="-0.27835051546391754s" repeatCount="indefinite"></animate>
  </rect>
</g><g transform="rotate(262.8 50 50)">
  <rect x="47" y="34" rx="3" ry="3" width="6" height="6" fill="#ccffcc">
    <animate attributeName="opacity" values="1;0" keyTimes="0;1" dur="1.0309278350515465s" begin="-0.26804123711340205s" repeatCount="indefinite"></animate>
  </rect>
</g><g transform="rotate(266.4 50 50)">
  <rect x="47" y="34" rx="3" ry="3" width="6" height="6" fill="#ccffcc">
    <animate attributeName="opacity" values="1;0" keyTimes="0;1" dur="1.0309278350515465s" begin="-0.25773195876288657s" repeatCount="indefinite"></animate>
  </rect>
</g><g transform="rotate(270 50 50)">
  <rect x="47" y="34" rx="3" ry="3" width="6" height="6" fill="#ccffcc">
    <animate attributeName="opacity" values="1;0" keyTimes="0;1" dur="1.0309278350515465s" begin="-0.24742268041237114s" repeatCount="indefinite"></animate>
  </rect>
</g><g transform="rotate(273.6 50 50)">
  <rect x="47" y="34" rx="3" ry="3" width="6" height="6" fill="#ccffcc">
    <animate attributeName="opacity" values="1;0" keyTimes="0;1" dur="1.0309278350515465s" begin="-0.23711340206185566s" repeatCount="indefinite"></animate>
  </rect>
</g><g transform="rotate(277.2 50 50)">
  <rect x="47" y="34" rx="3" ry="3" width="6" height="6" fill="#ccffcc">
    <animate attributeName="opacity" values="1;0" keyTimes="0;1" dur="1.0309278350515465s" begin="-0.2268041237113402s" repeatCount="indefinite"></animate>
  </rect>
</g><g transform="rotate(280.8 50 50)">
  <rect x="47" y="34" rx="3" ry="3" width="6" height="6" fill="#ccffcc">
    <animate attributeName="opacity" values="1;0" keyTimes="0;1" dur="1.0309278350515465s" begin="-0.21649484536082475s" repeatCount="indefinite"></animate>
  </rect>
</g><g transform="rotate(284.4 50 50)">
  <rect x="47" y="34" rx="3" ry="3" width="6" height="6" fill="#ccffcc">
    <animate attributeName="opacity" values="1;0" keyTimes="0;1" dur="1.0309278350515465s" begin="-0.20618556701030927s" repeatCount="indefinite"></animate>
  </rect>
</g><g transform="rotate(288 50 50)">
  <rect x="47" y="34" rx="3" ry="3" width="6" height="6" fill="#ccffcc">
    <animate attributeName="opacity" values="1;0" keyTimes="0;1" dur="1.0309278350515465s" begin="-0.1958762886597938s" repeatCount="indefinite"></animate>
  </rect>
</g><g transform="rotate(291.6 50 50)">
  <rect x="47" y="34" rx="3" ry="3" width="6" height="6" fill="#ccffcc">
    <animate attributeName="opacity" values="1;0" keyTimes="0;1" dur="1.0309278350515465s" begin="-0.18556701030927836s" repeatCount="indefinite"></animate>
  </rect>
</g><g transform="rotate(295.2 50 50)">
  <rect x="47" y="34" rx="3" ry="3" width="6" height="6" fill="#ccffcc">
    <animate attributeName="opacity" values="1;0" keyTimes="0;1" dur="1.0309278350515465s" begin="-0.17525773195876287s" repeatCount="indefinite"></animate>
  </rect>
</g><g transform="rotate(298.8 50 50)">
  <rect x="47" y="34" rx="3" ry="3" width="6" height="6" fill="#ccffcc">
    <animate attributeName="opacity" values="1;0" keyTimes="0;1" dur="1.0309278350515465s" begin="-0.16494845360824742s" repeatCount="indefinite"></animate>
  </rect>
</g><g transform="rotate(302.4 50 50)">
  <rect x="47" y="34" rx="3" ry="3" width="6" height="6" fill="#ccffcc">
    <animate attributeName="opacity" values="1;0" keyTimes="0;1" dur="1.0309278350515465s" begin="-0.15463917525773196s" repeatCount="indefinite"></animate>
  </rect>
</g><g transform="rotate(306 50 50)">
  <rect x="47" y="34" rx="3" ry="3" width="6" height="6" fill="#ccffcc">
    <animate attributeName="opacity" values="1;0" keyTimes="0;1" dur="1.0309278350515465s" begin="-0.14432989690721648s" repeatCount="indefinite"></animate>
  </rect>
</g><g transform="rotate(309.6 50 50)">
  <rect x="47" y="34" rx="3" ry="3" width="6" height="6" fill="#ccffcc">
    <animate attributeName="opacity" values="1;0" keyTimes="0;1" dur="1.0309278350515465s" begin="-0.13402061855670103s" repeatCount="indefinite"></animate>
  </rect>
</g><g transform="rotate(313.2 50 50)">
  <rect x="47" y="34" rx="3" ry="3" width="6" height="6" fill="#ccffcc">
    <animate attributeName="opacity" values="1;0" keyTimes="0;1" dur="1.0309278350515465s" begin="-0.12371134020618557s" repeatCount="indefinite"></animate>
  </rect>
</g><g transform="rotate(316.8 50 50)">
  <rect x="47" y="34" rx="3" ry="3" width="6" height="6" fill="#ccffcc">
    <animate attributeName="opacity" values="1;0" keyTimes="0;1" dur="1.0309278350515465s" begin="-0.1134020618556701s" repeatCount="indefinite"></animate>
  </rect>
</g><g transform="rotate(320.4 50 50)">
  <rect x="47" y="34" rx="3" ry="3" width="6" height="6" fill="#ccffcc">
    <animate attributeName="opacity" values="1;0" keyTimes="0;1" dur="1.0309278350515465s" begin="-0.10309278350515463s" repeatCount="indefinite"></animate>
  </rect>
</g><g transform="rotate(324 50 50)">
  <rect x="47" y="34" rx="3" ry="3" width="6" height="6" fill="#ccffcc">
    <animate attributeName="opacity" values="1;0" keyTimes="0;1" dur="1.0309278350515465s" begin="-0.09278350515463918s" repeatCount="indefinite"></animate>
  </rect>
</g><g transform="rotate(327.6 50 50)">
  <rect x="47" y="34" rx="3" ry="3" width="6" height="6" fill="#ccffcc">
    <animate attributeName="opacity" values="1;0" keyTimes="0;1" dur="1.0309278350515465s" begin="-0.08247422680412371s" repeatCount="indefinite"></animate>
  </rect>
</g><g transform="rotate(331.2 50 50)">
  <rect x="47" y="34" rx="3" ry="3" width="6" height="6" fill="#ccffcc">
    <animate attributeName="opacity" values="1;0" keyTimes="0;1" dur="1.0309278350515465s" begin="-0.07216494845360824s" repeatCount="indefinite"></animate>
  </rect>
</g><g transform="rotate(334.8 50 50)">
  <rect x="47" y="34" rx="3" ry="3" width="6" height="6" fill="#ccffcc">
    <animate attributeName="opacity" values="1;0" keyTimes="0;1" dur="1.0309278350515465s" begin="-0.061855670103092786s" repeatCount="indefinite"></animate>
  </rect>
</g><g transform="rotate(338.4 50 50)">
  <rect x="47" y="34" rx="3" ry="3" width="6" height="6" fill="#ccffcc">
    <animate attributeName="opacity" values="1;0" keyTimes="0;1" dur="1.0309278350515465s" begin="-0.05154639175257732s" repeatCount="indefinite"></animate>
  </rect>
</g><g transform="rotate(342 50 50)">
  <rect x="47" y="34" rx="3" ry="3" width="6" height="6" fill="#ccffcc">
    <animate attributeName="opacity" values="1;0" keyTimes="0;1" dur="1.0309278350515465s" begin="-0.041237113402061855s" repeatCount="indefinite"></animate>
  </rect>
</g><g transform="rotate(345.6 50 50)">
  <rect x="47" y="34" rx="3" ry="3" width="6" height="6" fill="#ccffcc">
    <animate attributeName="opacity" values="1;0" keyTimes="0;1" dur="1.0309278350515465s" begin="-0.030927835051546393s" repeatCount="indefinite"></animate>
  </rect>
</g><g transform="rotate(349.2 50 50)">
  <rect x="47" y="34" rx="3" ry="3" width="6" height="6" fill="#ccffcc">
    <animate attributeName="opacity" values="1;0" keyTimes="0;1" dur="1.0309278350515465s" begin="-0.020618556701030927s" repeatCount="indefinite"></animate>
  </rect>
</g><g transform="rotate(352.8 50 50)">
  <rect x="47" y="34" rx="3" ry="3" width="6" height="6" fill="#ccffcc">
    <animate attributeName="opacity" values="1;0" keyTimes="0;1" dur="1.0309278350515465s" begin="-0.010309278350515464s" repeatCount="indefinite"></animate>
  </rect>
</g><g transform="rotate(356.4 50 50)">
  <rect x="47" y="34" rx="3" ry="3" width="6" height="6" fill="#ccffcc">
    <animate attributeName="opacity" values="1;0" keyTimes="0;1" dur="1.0309278350515465s" begin="0s" repeatCount="indefinite"></animate>
  </rect>
</g>
<!-- [ldio] generated by https://loading.io/ --></svg>